<mxfile host="app.diagrams.net" agent="Mozilla/5.0 (Windows NT 10.0; Win64; x64) AppleWebKit/537.36 (KHTML, like Gecko) Chrome/131.0.0.0 Safari/537.36" version="25.0.3">
  <diagram id="C5RBs43oDa-KdzZeNtuy" name="Page-1">
    <mxGraphModel dx="1615" dy="522" grid="1" gridSize="10" guides="1" tooltips="1" connect="1" arrows="1" fold="1" page="1" pageScale="1" pageWidth="827" pageHeight="1169" math="0" shadow="0">
      <root>
        <mxCell id="WIyWlLk6GJQsqaUBKTNV-0" />
        <mxCell id="WIyWlLk6GJQsqaUBKTNV-1" parent="WIyWlLk6GJQsqaUBKTNV-0" />
        <mxCell id="wzdw4_wlwRApTawl22OK-2" style="edgeStyle=orthogonalEdgeStyle;rounded=0;orthogonalLoop=1;jettySize=auto;html=1;entryX=0.5;entryY=0;entryDx=0;entryDy=0;" edge="1" parent="WIyWlLk6GJQsqaUBKTNV-1" source="wzdw4_wlwRApTawl22OK-0" target="wzdw4_wlwRApTawl22OK-1">
          <mxGeometry relative="1" as="geometry" />
        </mxCell>
        <mxCell id="wzdw4_wlwRApTawl22OK-0" value="Start" style="ellipse;whiteSpace=wrap;html=1;" vertex="1" parent="WIyWlLk6GJQsqaUBKTNV-1">
          <mxGeometry x="310" y="40" width="120" height="80" as="geometry" />
        </mxCell>
        <mxCell id="wzdw4_wlwRApTawl22OK-1" value="nhap n" style="shape=parallelogram;html=1;strokeWidth=2;perimeter=parallelogramPerimeter;whiteSpace=wrap;rounded=1;arcSize=12;size=0.23;" vertex="1" parent="WIyWlLk6GJQsqaUBKTNV-1">
          <mxGeometry x="320" y="180" width="100" height="60" as="geometry" />
        </mxCell>
        <mxCell id="wzdw4_wlwRApTawl22OK-8" value="No" style="edgeStyle=orthogonalEdgeStyle;rounded=0;orthogonalLoop=1;jettySize=auto;html=1;entryX=0;entryY=0.5;entryDx=0;entryDy=0;" edge="1" parent="WIyWlLk6GJQsqaUBKTNV-1" source="wzdw4_wlwRApTawl22OK-3" target="wzdw4_wlwRApTawl22OK-7">
          <mxGeometry relative="1" as="geometry" />
        </mxCell>
        <mxCell id="wzdw4_wlwRApTawl22OK-3" value="n &amp;lt; 0 ?" style="strokeWidth=2;html=1;shape=mxgraph.flowchart.decision;whiteSpace=wrap;" vertex="1" parent="WIyWlLk6GJQsqaUBKTNV-1">
          <mxGeometry x="320" y="280" width="100" height="100" as="geometry" />
        </mxCell>
        <mxCell id="wzdw4_wlwRApTawl22OK-4" style="edgeStyle=orthogonalEdgeStyle;rounded=0;orthogonalLoop=1;jettySize=auto;html=1;entryX=0.5;entryY=0;entryDx=0;entryDy=0;entryPerimeter=0;" edge="1" parent="WIyWlLk6GJQsqaUBKTNV-1" source="wzdw4_wlwRApTawl22OK-1" target="wzdw4_wlwRApTawl22OK-3">
          <mxGeometry relative="1" as="geometry" />
        </mxCell>
        <mxCell id="wzdw4_wlwRApTawl22OK-32" style="edgeStyle=orthogonalEdgeStyle;rounded=0;orthogonalLoop=1;jettySize=auto;html=1;entryX=0;entryY=0.5;entryDx=0;entryDy=0;entryPerimeter=0;exitX=0;exitY=0.5;exitDx=0;exitDy=0;exitPerimeter=0;" edge="1" parent="WIyWlLk6GJQsqaUBKTNV-1" source="wzdw4_wlwRApTawl22OK-5" target="wzdw4_wlwRApTawl22OK-29">
          <mxGeometry relative="1" as="geometry">
            <mxPoint x="140" y="1100" as="targetPoint" />
            <Array as="points">
              <mxPoint x="130" y="330" />
              <mxPoint x="130" y="1100" />
            </Array>
          </mxGeometry>
        </mxCell>
        <mxCell id="wzdw4_wlwRApTawl22OK-5" value="bao loi va ket thuc" style="strokeWidth=2;html=1;shape=mxgraph.flowchart.display;whiteSpace=wrap;" vertex="1" parent="WIyWlLk6GJQsqaUBKTNV-1">
          <mxGeometry x="120" y="300" width="110" height="60" as="geometry" />
        </mxCell>
        <mxCell id="wzdw4_wlwRApTawl22OK-6" value="yes" style="edgeStyle=orthogonalEdgeStyle;rounded=0;orthogonalLoop=1;jettySize=auto;html=1;entryX=1;entryY=0.5;entryDx=0;entryDy=0;entryPerimeter=0;" edge="1" parent="WIyWlLk6GJQsqaUBKTNV-1" source="wzdw4_wlwRApTawl22OK-3" target="wzdw4_wlwRApTawl22OK-5">
          <mxGeometry relative="1" as="geometry" />
        </mxCell>
        <mxCell id="wzdw4_wlwRApTawl22OK-7" value="count=0,num=2" style="rounded=1;whiteSpace=wrap;html=1;absoluteArcSize=1;arcSize=14;strokeWidth=2;" vertex="1" parent="WIyWlLk6GJQsqaUBKTNV-1">
          <mxGeometry x="470" y="305" width="100" height="50" as="geometry" />
        </mxCell>
        <mxCell id="wzdw4_wlwRApTawl22OK-11" style="edgeStyle=orthogonalEdgeStyle;rounded=0;orthogonalLoop=1;jettySize=auto;html=1;" edge="1" parent="WIyWlLk6GJQsqaUBKTNV-1" source="wzdw4_wlwRApTawl22OK-9">
          <mxGeometry relative="1" as="geometry">
            <mxPoint x="680" y="1070" as="targetPoint" />
          </mxGeometry>
        </mxCell>
        <mxCell id="wzdw4_wlwRApTawl22OK-13" value="Yes" style="edgeStyle=orthogonalEdgeStyle;rounded=0;orthogonalLoop=1;jettySize=auto;html=1;entryX=0.5;entryY=0;entryDx=0;entryDy=0;" edge="1" parent="WIyWlLk6GJQsqaUBKTNV-1" source="wzdw4_wlwRApTawl22OK-9" target="wzdw4_wlwRApTawl22OK-12">
          <mxGeometry relative="1" as="geometry" />
        </mxCell>
        <mxCell id="wzdw4_wlwRApTawl22OK-9" value="count &amp;lt; n ?" style="strokeWidth=2;html=1;shape=mxgraph.flowchart.decision;whiteSpace=wrap;" vertex="1" parent="WIyWlLk6GJQsqaUBKTNV-1">
          <mxGeometry x="470" y="410" width="100" height="100" as="geometry" />
        </mxCell>
        <mxCell id="wzdw4_wlwRApTawl22OK-10" style="edgeStyle=orthogonalEdgeStyle;rounded=0;orthogonalLoop=1;jettySize=auto;html=1;entryX=0.5;entryY=0;entryDx=0;entryDy=0;entryPerimeter=0;" edge="1" parent="WIyWlLk6GJQsqaUBKTNV-1" source="wzdw4_wlwRApTawl22OK-7" target="wzdw4_wlwRApTawl22OK-9">
          <mxGeometry relative="1" as="geometry" />
        </mxCell>
        <mxCell id="wzdw4_wlwRApTawl22OK-12" value="isPrime =&amp;nbsp; 1" style="rounded=1;whiteSpace=wrap;html=1;absoluteArcSize=1;arcSize=14;strokeWidth=2;" vertex="1" parent="WIyWlLk6GJQsqaUBKTNV-1">
          <mxGeometry x="360" y="510" width="100" height="50" as="geometry" />
        </mxCell>
        <mxCell id="wzdw4_wlwRApTawl22OK-17" value="Yes" style="edgeStyle=orthogonalEdgeStyle;rounded=0;orthogonalLoop=1;jettySize=auto;html=1;" edge="1" parent="WIyWlLk6GJQsqaUBKTNV-1" source="wzdw4_wlwRApTawl22OK-14" target="wzdw4_wlwRApTawl22OK-16">
          <mxGeometry relative="1" as="geometry" />
        </mxCell>
        <mxCell id="wzdw4_wlwRApTawl22OK-19" value="No" style="edgeStyle=orthogonalEdgeStyle;rounded=0;orthogonalLoop=1;jettySize=auto;html=1;" edge="1" parent="WIyWlLk6GJQsqaUBKTNV-1" source="wzdw4_wlwRApTawl22OK-14" target="wzdw4_wlwRApTawl22OK-18">
          <mxGeometry relative="1" as="geometry" />
        </mxCell>
        <mxCell id="wzdw4_wlwRApTawl22OK-14" value="num % i ==0?" style="strokeWidth=2;html=1;shape=mxgraph.flowchart.decision;whiteSpace=wrap;" vertex="1" parent="WIyWlLk6GJQsqaUBKTNV-1">
          <mxGeometry x="360" y="610" width="100" height="100" as="geometry" />
        </mxCell>
        <mxCell id="wzdw4_wlwRApTawl22OK-15" style="edgeStyle=orthogonalEdgeStyle;rounded=0;orthogonalLoop=1;jettySize=auto;html=1;entryX=0.5;entryY=0;entryDx=0;entryDy=0;entryPerimeter=0;" edge="1" parent="WIyWlLk6GJQsqaUBKTNV-1" source="wzdw4_wlwRApTawl22OK-12" target="wzdw4_wlwRApTawl22OK-14">
          <mxGeometry relative="1" as="geometry" />
        </mxCell>
        <mxCell id="wzdw4_wlwRApTawl22OK-21" value="" style="edgeStyle=orthogonalEdgeStyle;rounded=0;orthogonalLoop=1;jettySize=auto;html=1;" edge="1" parent="WIyWlLk6GJQsqaUBKTNV-1" source="wzdw4_wlwRApTawl22OK-16" target="wzdw4_wlwRApTawl22OK-20">
          <mxGeometry relative="1" as="geometry" />
        </mxCell>
        <mxCell id="wzdw4_wlwRApTawl22OK-16" value="isPrime = 0" style="whiteSpace=wrap;html=1;strokeWidth=2;" vertex="1" parent="WIyWlLk6GJQsqaUBKTNV-1">
          <mxGeometry x="170" y="630" width="120" height="60" as="geometry" />
        </mxCell>
        <mxCell id="wzdw4_wlwRApTawl22OK-22" style="edgeStyle=orthogonalEdgeStyle;rounded=0;orthogonalLoop=1;jettySize=auto;html=1;entryX=1;entryY=1;entryDx=0;entryDy=0;" edge="1" parent="WIyWlLk6GJQsqaUBKTNV-1" source="wzdw4_wlwRApTawl22OK-18" target="wzdw4_wlwRApTawl22OK-16">
          <mxGeometry relative="1" as="geometry">
            <Array as="points">
              <mxPoint x="590" y="730" />
              <mxPoint x="290" y="730" />
            </Array>
          </mxGeometry>
        </mxCell>
        <mxCell id="wzdw4_wlwRApTawl22OK-18" value="tiep tuc vong lap for" style="whiteSpace=wrap;html=1;strokeWidth=2;" vertex="1" parent="WIyWlLk6GJQsqaUBKTNV-1">
          <mxGeometry x="530" y="630" width="120" height="60" as="geometry" />
        </mxCell>
        <mxCell id="wzdw4_wlwRApTawl22OK-24" value="" style="edgeStyle=orthogonalEdgeStyle;rounded=0;orthogonalLoop=1;jettySize=auto;html=1;" edge="1" parent="WIyWlLk6GJQsqaUBKTNV-1" source="wzdw4_wlwRApTawl22OK-20" target="wzdw4_wlwRApTawl22OK-23">
          <mxGeometry relative="1" as="geometry" />
        </mxCell>
        <mxCell id="wzdw4_wlwRApTawl22OK-20" value="thoat vong lap for" style="whiteSpace=wrap;html=1;strokeWidth=2;" vertex="1" parent="WIyWlLk6GJQsqaUBKTNV-1">
          <mxGeometry x="170" y="770" width="120" height="60" as="geometry" />
        </mxCell>
        <mxCell id="wzdw4_wlwRApTawl22OK-26" value="Yes" style="edgeStyle=orthogonalEdgeStyle;rounded=0;orthogonalLoop=1;jettySize=auto;html=1;" edge="1" parent="WIyWlLk6GJQsqaUBKTNV-1" source="wzdw4_wlwRApTawl22OK-23" target="wzdw4_wlwRApTawl22OK-25">
          <mxGeometry relative="1" as="geometry" />
        </mxCell>
        <mxCell id="wzdw4_wlwRApTawl22OK-28" value="No" style="edgeStyle=orthogonalEdgeStyle;rounded=0;orthogonalLoop=1;jettySize=auto;html=1;" edge="1" parent="WIyWlLk6GJQsqaUBKTNV-1" source="wzdw4_wlwRApTawl22OK-23" target="wzdw4_wlwRApTawl22OK-27">
          <mxGeometry relative="1" as="geometry" />
        </mxCell>
        <mxCell id="wzdw4_wlwRApTawl22OK-23" value="isPrime == 1?" style="rhombus;whiteSpace=wrap;html=1;strokeWidth=2;" vertex="1" parent="WIyWlLk6GJQsqaUBKTNV-1">
          <mxGeometry x="160" y="900" width="140" height="80" as="geometry" />
        </mxCell>
        <mxCell id="wzdw4_wlwRApTawl22OK-30" style="edgeStyle=orthogonalEdgeStyle;rounded=0;orthogonalLoop=1;jettySize=auto;html=1;" edge="1" parent="WIyWlLk6GJQsqaUBKTNV-1" source="wzdw4_wlwRApTawl22OK-25" target="wzdw4_wlwRApTawl22OK-29">
          <mxGeometry relative="1" as="geometry">
            <Array as="points">
              <mxPoint x="60" y="1100" />
            </Array>
          </mxGeometry>
        </mxCell>
        <mxCell id="wzdw4_wlwRApTawl22OK-25" value="in num&lt;div&gt;tang count&lt;/div&gt;" style="whiteSpace=wrap;html=1;strokeWidth=2;" vertex="1" parent="WIyWlLk6GJQsqaUBKTNV-1">
          <mxGeometry y="1030" width="120" height="60" as="geometry" />
        </mxCell>
        <mxCell id="wzdw4_wlwRApTawl22OK-31" style="edgeStyle=orthogonalEdgeStyle;rounded=0;orthogonalLoop=1;jettySize=auto;html=1;" edge="1" parent="WIyWlLk6GJQsqaUBKTNV-1" source="wzdw4_wlwRApTawl22OK-27" target="wzdw4_wlwRApTawl22OK-29">
          <mxGeometry relative="1" as="geometry">
            <Array as="points">
              <mxPoint x="300" y="1100" />
            </Array>
          </mxGeometry>
        </mxCell>
        <mxCell id="wzdw4_wlwRApTawl22OK-27" value="Tang num len 1" style="whiteSpace=wrap;html=1;strokeWidth=2;" vertex="1" parent="WIyWlLk6GJQsqaUBKTNV-1">
          <mxGeometry x="240" y="1020" width="120" height="60" as="geometry" />
        </mxCell>
        <mxCell id="wzdw4_wlwRApTawl22OK-29" value="End" style="strokeWidth=2;html=1;shape=mxgraph.flowchart.start_1;whiteSpace=wrap;" vertex="1" parent="WIyWlLk6GJQsqaUBKTNV-1">
          <mxGeometry x="630" y="1070" width="100" height="60" as="geometry" />
        </mxCell>
      </root>
    </mxGraphModel>
  </diagram>
</mxfile>
